<svg id="effect" height="512" viewBox="0 0 36 36" width="512" xmlns="http://www.w3.org/2000/svg"><path d="m27.417 3.914c-6.915.129-11.732-3.365-15.064-3.302s-10.296 2.109-10.009 17.44 9.744 17.404 13.41 17.336c17.163-.321 23.911-31.703 11.663-31.474z" fill="#efefef"/><path d="m25.5 21.03c0-1.17 0-2.99 0-2.99 0-3.96-4.11-5.54-7.5-5.54s-7.5 1.58-7.5 5.54v2.98c-1.25-1.52-2-3.45-2-5.52 0-4.97 4.25-9 9.5-9s9.5 4.03 9.5 9c0 2.07-.75 4.01-2 5.53z" fill="#2fdf84"/><path d="m25.5 18.04v2.99.96c0 3.53-2.97 7.51-7.5 7.51s-7.5-3.98-7.5-7.51v-.97c0-1.17 0-2.98 0-2.98 0-3.96 4.11-5.54 7.5-5.54s7.5 1.58 7.5 5.54z" fill="#efefef"/><path d="m19 29.43c-.32.05-.66.07-1 .07-4.53 0-7.5-3.98-7.5-7.51v-.97c0-1.17 0-2.98 0-2.98 0-3.96 4.11-5.54 7.5-5.54.33 0 .66.01 1 .05-3.15.28-6.5 1.91-6.5 5.49v2.98.97c0 3.26 2.54 6.91 6.5 7.44z" fill="#d5dbe1"/><path d="m10.5 15.5c0 .48.04.94.12 1.4-.08.35-.12.73-.12 1.14v2.98c-1.25-1.52-2-3.45-2-5.52 0-4.97 4.25-9 9.5-9 .34 0 .67.02 1 .05-4.78.47-8.5 4.3-8.5 8.95z" fill="#00b871"/><path d="m26.067 21.508-1.154-.957c1.185-1.43 1.837-3.224 1.837-5.051 0-4.549-3.925-8.25-8.75-8.25s-8.75 3.701-8.75 8.25c0 1.828.652 3.622 1.837 5.051l-1.154.957c-1.408-1.697-2.183-3.831-2.183-6.008 0-5.376 4.598-9.75 10.25-9.75s10.25 4.374 10.25 9.75c0 2.177-.775 4.311-2.183 6.008z"/><path d="m17.794 13.221c-2.412-.689-4.311-2.622-4.956-5.045l-.063-.231 1.449-.389.063.233c.511 1.917 2.012 3.445 3.919 3.99z"/><path d="m15 21.25c-1.24 0-2.25-1.009-2.25-2.25s1.01-2.25 2.25-2.25 2.25 1.009 2.25 2.25-1.01 2.25-2.25 2.25zm0-3c-.413 0-.75.336-.75.75s.337.75.75.75.75-.336.75-.75-.337-.75-.75-.75z"/><path d="m21 21.25c-1.24 0-2.25-1.009-2.25-2.25s1.01-2.25 2.25-2.25 2.25 1.009 2.25 2.25-1.01 2.25-2.25 2.25zm0-3c-.413 0-.75.336-.75.75s.337.75.75.75.75-.336.75-.75-.337-.75-.75-.75z"/><path d="m18 26.25c-1.331 0-2.489-.486-3.1-1.3l1.199-.9c.319.425 1.065.7 1.9.7s1.581-.275 1.9-.7l1.199.9c-.609.814-1.767 1.3-3.098 1.3z"/><path d="m18 30.25c-4.935 0-8.25-4.271-8.25-8.26v-3.954c0-4.319 4.276-6.286 8.25-6.286s8.25 1.967 8.25 6.286v3.954c0 3.989-3.315 8.26-8.25 8.26zm0-17c-2.335 0-6.75 1-6.75 4.786v3.954c0 3.265 2.712 6.76 6.75 6.76s6.75-3.495 6.75-6.76v-3.954c0-3.786-4.415-4.786-6.75-4.786z"/><path d="m4.833 6c-.827 0-1.5-.673-1.5-1.5s.673-1.5 1.5-1.5 1.5.673 1.5 1.5-.673 1.5-1.5 1.5zm0-2c-.275 0-.5.224-.5.5s.225.5.5.5.5-.224.5-.5-.225-.5-.5-.5z" fill="#a4afc1"/></svg>